# xmcd
#
# Track frame offsets: 
#        150
#        19837
#        34625
#        49912
#        65400
#        82125
#        102825
#        118275
#        134525
#        159895
#
# Disc length: 2288 seconds
#
# Revision: 3
# Processed by: cddbd v1.5.2PL0 Copyright (c) Steve Scherf et al.
# Submitted via: ExactAudioCopy v0.99pb3
#
DISCID=8508ee0a
DTITLE=Lonnie Brooks - Hot Shot
DYEAR=1983
DGENRE=Blues
TTITLE0=Don't Take Advantage Of Me
TTITLE1=Wrong Number
TTITLE2=Messed Up Again
TTITLE3=Family Rules
TTITLE4=Back Trail
TTITLE5=I Want All My Money Back
TTITLE6=Mr. Hot Shot
TTITLE7=Brand New Mojo Hand
TTITLE8=Mr. Somebody
TTITLE9=One More Shot
EXTD=
EXTT0=
EXTT1=
EXTT2=
EXTT3=
EXTT4=
EXTT5=
EXTT6=
EXTT7=
EXTT8=
EXTT9=
PLAYORDER=
